<?xml version="1.0" encoding="UTF-8" standalone="no"?>
<svg width="31px" height="43px" viewBox="0 0 31 43" version="1.1" xmlns="http://www.w3.org/2000/svg" xmlns:xlink="http://www.w3.org/1999/xlink" xmlns:sketch="http://www.bohemiancoding.com/sketch/ns">
    <!-- Generator: Sketch 3.4.4 (17249) - http://www.bohemiancoding.com/sketch -->
    <title>Group + 专题</title>
    <desc>Created with Sketch.</desc>
    <defs></defs>
    <g id="首页" stroke="none" stroke-width="1" fill="none" fill-rule="evenodd" sketch:type="MSPage">
        <g id="home" sketch:type="MSArtboardGroup" transform="translate(-171.000000, -613.000000)">
            <g id="Bottom-Tab-Bar" sketch:type="MSLayerGroup" transform="translate(0.000000, 602.000000)">
                <g id="Group-+-专题" transform="translate(172.000000, 12.000000)">
                    <path d="M18,17.5 L29.7917338,17.5 L18,17.5 Z M18,6.5 L29.7917338,6.5 L18,6.5 Z M18,12 L29.7917338,12 L18,12 Z M18,23 L29.7917338,23 L18,23 Z M18,1 L29.7917338,1 L18,1 Z M0,2.99109042 C0,1.33915679 1.34435073,0 2.99942248,0 L12.0005775,0 C13.6571128,0 15,1.34177063 15,2.99109042 L15,21.0089096 C15,22.6608432 13.6556493,24 12.0005775,24 L2.99942248,24 C1.34288718,24 0,22.6582294 0,21.0089096 L0,2.99109042 Z" id="Path-18" stroke="#666666" stroke-linecap="round" sketch:type="MSShapeGroup"></path>
                    <text id="专题" sketch:type="MSTextLayer" font-family="Heiti SC" font-size="12" font-weight="260" sketch:alignment="middle" letter-spacing="1.00000012" fill="#666666">
                        <tspan x="2.49999988" y="40">专题</tspan>
                    </text>
                </g>
            </g>
        </g>
    </g>
</svg>