<?xml version="1.0" encoding="UTF-8" standalone="no"?>
<svg width="108px" height="124px" viewBox="0 0 108 124" version="1.1" xmlns="http://www.w3.org/2000/svg" xmlns:xlink="http://www.w3.org/1999/xlink" xmlns:sketch="http://www.bohemiancoding.com/sketch/ns">
    <!-- Generator: Sketch 3.5.1 (25234) - http://www.bohemiancoding.com/sketch -->
    <title>logo</title>
    <desc>Created with Sketch.</desc>
    <defs>
        <linearGradient x1="0%" y1="0%" x2="100%" y2="100%" id="linearGradient-1">
            <stop stop-color="#F4C9CF" offset="0%"></stop>
            <stop stop-color="#D7B87C" offset="100%"></stop>
        </linearGradient>
    </defs>
    <g id="all" stroke="none" stroke-width="1" fill="none" fill-rule="evenodd" sketch:type="MSPage">
        <g id="登录" sketch:type="MSArtboardGroup" transform="translate(-133.000000, -156.000000)">
            <g id="logo" sketch:type="MSLayerGroup" transform="translate(133.000000, 156.000000)">
                <path d="M19.3048421,118.186477 C20.8212632,118.186477 21.7578947,118.898376 21.7578947,120.851533 C21.7578947,122.805949 20.8212632,123.509036 19.3048421,123.509036 L18.1863158,123.509036 C18.0353684,123.509036 17.9166316,123.390071 17.9166316,123.240264 L17.9166316,118.455249 C17.9166316,118.305442 18.0353684,118.186477 18.1863158,118.186477 L19.3048421,118.186477 L19.3048421,118.186477 Z M18.4566316,123.018701 L19.3048421,123.018701 C20.4884211,123.018701 21.2096842,122.496893 21.2096842,120.851533 C21.2096842,119.222538 20.4884211,118.676183 19.3048421,118.676183 L18.4566316,118.676183 L18.4566316,123.018701 L18.4566316,123.018701 Z" id="Fill-1" fill="#3E3A39" sketch:type="MSShapeGroup"></path>
                <path d="M25.3250526,123.303838 C25.3250526,123.453645 25.2056842,123.572609 25.0547368,123.572609 C24.9037895,123.572609 24.7850526,123.453645 24.7850526,123.303838 L24.7850526,118.455878 C24.7850526,118.305442 24.9037895,118.185848 25.0547368,118.185848 L26.6343158,118.185848 C27.5147368,118.185848 28.1494737,118.849909 28.1494737,119.696508 C28.1494737,120.511635 27.5861053,121.167513 26.7296842,121.207797 L28.1816842,123.137036 C28.2214737,123.184873 28.2372632,123.247817 28.2372632,123.303838 C28.2372632,123.453645 28.1178947,123.572609 27.9675789,123.572609 C27.888,123.572609 27.8008421,123.540508 27.7370526,123.444832 L26.1265263,121.207797 L25.3250526,121.207797 L25.3250526,123.303838 L25.3250526,123.303838 Z M25.3250526,120.716832 L26.6501053,120.716832 C27.2058947,120.716832 27.6018947,120.266152 27.6018947,119.696508 C27.6018947,119.112386 27.1976842,118.676183 26.6261053,118.676183 L25.3250526,118.676183 L25.3250526,120.716832 L25.3250526,120.716832 Z" id="Fill-2" fill="#3E3A39" sketch:type="MSShapeGroup"></path>
                <path d="M31.4311579,123.509036 C31.2802105,123.509036 31.1608421,123.390071 31.1608421,123.239635 L31.1608421,118.455249 C31.1608421,118.304812 31.2802105,118.185848 31.4311579,118.185848 L33.9783158,118.185848 C34.1134737,118.185848 34.224,118.296629 34.224,118.43133 C34.224,118.56666 34.1134737,118.676812 33.9783158,118.676812 L31.7014737,118.676812 L31.7014737,120.582761 L33.4471579,120.582761 C33.5823158,120.582761 33.6934737,120.692914 33.6934737,120.827614 C33.6934737,120.962315 33.5823158,121.073096 33.4471579,121.073096 L31.7014737,121.073096 L31.7014737,123.018701 L34.0661053,123.018701 C34.2012632,123.018701 34.3124211,123.128853 34.3124211,123.263553 C34.3124211,123.398254 34.2012632,123.509036 34.0661053,123.509036 L31.4311579,123.509036" id="Fill-3" fill="#3E3A39" sketch:type="MSShapeGroup"></path>
                <path d="M38.9103158,118.56603 C38.0778947,118.56603 37.7602105,118.977056 37.7602105,119.428365 C37.7602105,120.741381 40.7595789,120.179289 40.7595789,122.085239 C40.7595789,123.074091 40.0768421,123.619817 38.8547368,123.619817 C37.9496842,123.619817 37.2757895,123.161584 37.0061053,122.646701 C36.9738947,122.583127 36.9663158,122.552284 36.9663158,122.505076 C36.9663158,122.362193 37.0774737,122.251411 37.2202105,122.251411 C37.3155789,122.251411 37.3951579,122.299249 37.4431579,122.377929 C37.6964211,122.788954 38.1574737,123.129482 38.8547368,123.129482 C39.7282105,123.129482 40.2202105,122.781401 40.2202105,122.085239 C40.2202105,120.60668 37.2202105,121.302843 37.2202105,119.428365 C37.2202105,118.700731 37.752,118.075695 38.9103158,118.075695 C39.6644211,118.075695 40.2757895,118.391675 40.6086316,118.889563 C40.6402105,118.937401 40.6572632,118.984609 40.6572632,119.04 C40.6572632,119.182883 40.5461053,119.293665 40.4027368,119.293665 C40.3313684,119.293665 40.26,119.269746 40.1962105,119.190437 C39.9587368,118.897746 39.5772632,118.56603 38.9103158,118.56603" id="Fill-4" fill="#3E3A39" sketch:type="MSShapeGroup"></path>
                <path d="M45.3821053,118.56603 C44.5496842,118.56603 44.232,118.977056 44.232,119.428365 C44.232,120.741381 47.2313684,120.179289 47.2313684,122.085239 C47.2313684,123.074091 46.5486316,123.619817 45.3265263,123.619817 C44.4227368,123.619817 43.7475789,123.161584 43.4778947,122.646701 C43.4456842,122.583127 43.4381053,122.552284 43.4381053,122.505076 C43.4381053,122.362193 43.5492632,122.251411 43.692,122.251411 C43.7873684,122.251411 43.8669474,122.299249 43.9136842,122.377929 C44.1682105,122.788954 44.6292632,123.129482 45.3265263,123.129482 C46.2,123.129482 46.692,122.781401 46.692,122.085239 C46.692,120.60668 43.692,121.302843 43.692,119.428365 C43.692,118.700731 44.2237895,118.075695 45.3821053,118.075695 C46.1362105,118.075695 46.7475789,118.391675 47.0804211,118.889563 C47.112,118.937401 47.1290526,118.984609 47.1290526,119.04 C47.1290526,119.182883 47.0178947,119.293665 46.8745263,119.293665 C46.8031579,119.293665 46.7317895,119.269746 46.668,119.190437 C46.4305263,118.897746 46.0490526,118.56603 45.3821053,118.56603" id="Fill-5" fill="#3E3A39" sketch:type="MSShapeGroup"></path>
                <path d="M54.7288421,123.303208 C54.7288421,123.453645 54.6094737,123.572609 54.4585263,123.572609 C54.3075789,123.572609 54.1888421,123.453645 54.1888421,123.303208 L54.1888421,118.455878 C54.1888421,118.304812 54.3075789,118.185848 54.4585263,118.185848 L57.0056842,118.185848 C57.1408421,118.185848 57.252,118.297259 57.252,118.43133 C57.252,118.56666 57.1408421,118.676183 57.0056842,118.676183 L54.7288421,118.676183 L54.7288421,120.645706 L56.4745263,120.645706 C56.6096842,120.645706 56.7208421,120.756487 56.7208421,120.891817 C56.7208421,121.025259 56.6096842,121.13667 56.4745263,121.13667 L54.7288421,121.13667 L54.7288421,123.303208" id="Fill-6" fill="#3E3A39" sketch:type="MSShapeGroup"></path>
                <path d="M59.9772632,120.851533 C59.9772632,118.977056 60.9145263,118.075695 62.4536842,118.075695 C63.9934737,118.075695 64.9294737,118.977056 64.9294737,120.851533 C64.9294737,122.710274 63.9934737,123.619817 62.4536842,123.619817 C60.9145263,123.619817 59.9772632,122.710274 59.9772632,120.851533 M60.5330526,120.851533 C60.5330526,122.393036 61.2391579,123.128853 62.4536842,123.128853 C63.6675789,123.128853 64.3743158,122.393036 64.3743158,120.851533 C64.3743158,119.300589 63.6675789,118.56666 62.4536842,118.56666 C61.2391579,118.56666 60.5330526,119.300589 60.5330526,120.851533" id="Fill-7" fill="#3E3A39" sketch:type="MSShapeGroup"></path>
                <path d="M68.4972632,123.303838 C68.4972632,123.453645 68.3778947,123.572609 68.2269474,123.572609 C68.076,123.572609 67.9572632,123.453645 67.9572632,123.303838 L67.9572632,118.455878 C67.9572632,118.305442 68.076,118.185848 68.2269474,118.185848 L69.8065263,118.185848 C70.6869474,118.185848 71.3216842,118.849909 71.3216842,119.696508 C71.3216842,120.511635 70.7583158,121.167513 69.9018947,121.207797 L71.3538947,123.137036 C71.3936842,123.184873 71.4094737,123.247817 71.4094737,123.303838 C71.4094737,123.453645 71.2901053,123.572609 71.1397895,123.572609 C71.0602105,123.572609 70.9730526,123.540508 70.9092632,123.444832 L69.2987368,121.207797 L68.4972632,121.207797 L68.4972632,123.303838 L68.4972632,123.303838 Z M68.4972632,120.716832 L69.8223158,120.716832 C70.3781053,120.716832 70.7741053,120.266152 70.7741053,119.696508 C70.7741053,119.112386 70.3698947,118.676183 69.7983158,118.676183 L68.4972632,118.676183 L68.4972632,120.716832 L68.4972632,120.716832 Z" id="Fill-8" fill="#3E3A39" sketch:type="MSShapeGroup"></path>
                <path d="M80.3671579,122.496893 L78.7092632,119.420183 L78.7092632,123.31202 C78.7092632,123.454274 78.5898947,123.572609 78.4471579,123.572609 C78.3037895,123.572609 78.1844211,123.454274 78.1844211,123.31202 L78.1844211,118.383492 C78.1844211,118.241868 78.3037895,118.122274 78.4471579,118.122274 C78.5658947,118.122274 78.6454737,118.193401 78.6852632,118.27334 L80.6058947,121.856122 L82.5341053,118.27334 C82.5663158,118.21732 82.6294737,118.122274 82.7728421,118.122274 C82.9149474,118.122274 83.0343158,118.241868 83.0343158,118.383492 L83.0343158,123.31202 C83.0343158,123.454274 82.9149474,123.572609 82.7728421,123.572609 C82.6294737,123.572609 82.5107368,123.454274 82.5107368,123.31202 L82.5107368,119.420183 L80.8433684,122.496893 C80.7884211,122.599492 80.7012632,122.64733 80.6058947,122.64733 C80.5263158,122.64733 80.4227368,122.607046 80.3671579,122.496893" id="Fill-9" fill="#3E3A39" sketch:type="MSShapeGroup"></path>
                <path d="M86.6172632,123.509036 C86.4663158,123.509036 86.3469474,123.390071 86.3469474,123.239635 L86.3469474,118.455249 C86.3469474,118.304812 86.4663158,118.185848 86.6172632,118.185848 L89.1644211,118.185848 C89.2995789,118.185848 89.4101053,118.296629 89.4101053,118.43133 C89.4101053,118.56666 89.2995789,118.676812 89.1644211,118.676812 L86.8875789,118.676812 L86.8875789,120.582761 L88.6332632,120.582761 C88.7684211,120.582761 88.8795789,120.692914 88.8795789,120.827614 C88.8795789,120.962315 88.7684211,121.073096 88.6332632,121.073096 L86.8875789,121.073096 L86.8875789,123.018701 L89.2522105,123.018701 C89.3873684,123.018701 89.4985263,123.128853 89.4985263,123.263553 C89.4985263,123.398254 89.3873684,123.509036 89.2522105,123.509036 L86.6172632,123.509036" id="Fill-10" fill="#3E3A39" sketch:type="MSShapeGroup"></path>
                <path d="M11.004,94.3438579 C9.26147368,92.6072284 7.16084211,91.7392284 4.70084211,91.7392284 L2.88063158,91.7392284 L2.88063158,93.5167716 L4.70084211,93.5167716 C6.67010526,93.5167716 8.35073684,94.2110457 9.74463158,95.5995939 C11.1378947,96.9881421 11.8345263,98.6637157 11.8345263,100.625685 C11.8345263,102.589543 11.1378947,104.264487 9.74463158,105.653665 C8.35073684,107.042213 6.67010526,107.736487 4.70084211,107.736487 L2.02547368,107.736487 L2.02547368,93.5167716 L2.03621053,93.5167716 L2.03621053,91.7392284 L1.13368421,91.7392284 C0.888631579,91.7392284 0.678315789,91.8254619 0.503368421,91.9991878 C0.329052632,92.1729137 0.241894737,92.3831472 0.241894737,92.6273706 L0.241894737,108.624629 C0.241894737,108.869482 0.329052632,109.078457 0.503368421,109.252183 C0.678315789,109.426538 0.888631579,109.513401 1.13368421,109.513401 L4.70084211,109.513401 C7.16084211,109.513401 9.26147368,108.645401 11.004,106.908142 C12.7465263,105.171513 13.6181053,103.07799 13.6181053,100.625685 C13.6181053,98.1740102 12.7465263,96.0811168 11.004,94.3438579" id="Fill-11" fill="#3E3A39" sketch:type="MSShapeGroup"></path>
                <path d="M106.768421,107.736487 L96.9593684,107.736487 L96.9593684,104.248122 L96.9511579,104.248122 L96.9511579,98.0336447 L96.9593684,98.0336447 L96.9593684,93.5167716 L106.768421,93.5167716 C107.013474,93.5167716 107.223789,93.4299086 107.398737,93.2549239 C107.573053,93.0818274 107.660211,92.8715939 107.660211,92.6273706 C107.660211,92.3837766 107.573053,92.1741726 107.398737,91.9991878 C107.223789,91.8254619 107.013474,91.7392284 106.768421,91.7392284 L96.0675789,91.7392284 C95.8218947,91.7392284 95.6115789,91.8254619 95.4372632,91.9991878 C95.2629474,92.1741726 95.1757895,92.3837766 95.1757895,92.6273706 L95.1757895,108.624629 C95.1757895,108.869482 95.2629474,109.078457 95.4372632,109.252812 C95.6115789,109.426538 95.8218947,109.513401 96.0675789,109.513401 L106.768421,109.513401 C107.013474,109.513401 107.223789,109.426538 107.398737,109.252812 C107.573053,109.078457 107.660211,108.869482 107.660211,108.624629 C107.660211,108.381036 107.573053,108.171431 107.398737,107.996447 C107.223789,107.822721 107.013474,107.736487 106.768421,107.736487" id="Fill-12" fill="#3E3A39" sketch:type="MSShapeGroup"></path>
                <path d="M104.723368,101.254497 C104.897053,101.080772 104.984842,100.871168 104.984842,100.625685 C104.984842,100.382091 104.897053,100.172487 104.723368,99.998132 C104.549053,99.8244061 104.338737,99.7375431 104.093053,99.7375431 L97.7955789,99.7375431 L97.7955789,101.515086 L104.093053,101.515086 C104.338737,101.515086 104.549053,101.427594 104.723368,101.254497" id="Fill-13" fill="#3E3A39" sketch:type="MSShapeGroup"></path>
                <path d="M67.7608421,103.835838 L67.7715789,103.830802 L61.9433684,92.2056447 C61.7734737,91.8940711 61.5101053,91.738599 61.1526316,91.738599 C60.9075789,91.738599 60.6978947,91.8254619 60.5223158,91.9998173 C60.3486316,92.1735431 60.2608421,92.3831472 60.2608421,92.6273706 L60.2608421,108.624629 C60.2608421,108.869482 60.3486316,109.079086 60.5223158,109.252812 C60.6978947,109.426538 60.9075789,109.513401 61.1526316,109.513401 C61.3976842,109.513401 61.6086316,109.426538 61.7829474,109.252812 C61.9578947,109.079086 62.0444211,108.869482 62.0444211,108.624629 L62.0444211,96.3933198 L68.3538947,108.968934 C68.5326316,109.332122 68.8073684,109.513401 69.1793684,109.513401 C69.5349474,109.513401 69.7907368,109.368629 69.9486316,109.080975 L70.1766316,108.625259 L67.7608421,103.835838" id="Fill-14" fill="#3E3A39" sketch:type="MSShapeGroup"></path>
                <path d="M77.8345263,91.9998173 C77.6602105,91.8260914 77.4498947,91.7392284 77.2042105,91.7392284 C76.848,91.7392284 76.584,91.8947005 76.4134737,92.2056447 L69.6473684,105.702132 L70.6484211,107.685503 L76.3130526,96.3933198 L76.3130526,108.625259 C76.3130526,108.869482 76.4002105,109.078457 76.5745263,109.252812 C76.7488421,109.427168 76.9591579,109.51403 77.2042105,109.51403 C77.4498947,109.51403 77.6602105,109.427168 77.8345263,109.252812 C78.0088421,109.078457 78.096,108.869482 78.096,108.625259 L78.096,92.628 C78.096,92.3831472 78.0088421,92.1729137 77.8345263,91.9998173" id="Fill-15" fill="#3E3A39" sketch:type="MSShapeGroup"></path>
                <path d="M42.9202105,103.553218 C42.7458947,103.379492 42.5355789,103.292629 42.2898947,103.292629 L40.5069474,103.292629 L40.5069474,92.6273706 C40.5069474,92.3831472 40.4191579,92.1735431 40.2448421,91.9998173 C40.0705263,91.8254619 39.8602105,91.738599 39.6151579,91.738599 C39.2949474,91.738599 39.0536842,91.8607107 38.8901053,92.1055635 L30.864,103.659594 C30.7534737,103.813807 30.6972632,103.988792 30.6972632,104.181401 C30.6972632,104.425624 30.7844211,104.635228 30.9587368,104.808954 C31.1336842,104.98268 31.344,105.070173 31.5890526,105.070173 L37.8789474,105.070173 L37.8789474,103.292629 L33.2949474,103.292629 L38.7233684,95.4711878 L38.7233684,108.624629 C38.7233684,108.869482 38.8105263,109.079086 38.9848421,109.252812 C39.1591579,109.426538 39.3694737,109.513401 39.6151579,109.513401 C39.8602105,109.513401 40.0705263,109.426538 40.2448421,109.252812 C40.4191579,109.079086 40.5069474,108.869482 40.5069474,108.624629 L40.5069474,105.070173 L42.2898947,105.070173 C42.5355789,105.070173 42.7458947,104.98268 42.9202105,104.808954 C43.0945263,104.635228 43.1816842,104.425624 43.1816842,104.181401 C43.1816842,103.936548 43.0945263,103.726944 42.9202105,103.553218" id="Fill-16" fill="#3E3A39" sketch:type="MSShapeGroup"></path>
                <path d="M18.1515789,22.0908832 L34.0635789,22.0908832 L34.0635789,29.124264 C34.0635789,30.2163452 34.9522105,31.102599 36.0486316,31.102599 C37.1450526,31.102599 38.0336842,30.2163452 38.0336842,29.124264 L38.0336842,22.0908832 L51.9296842,22.0908832 L51.9296842,36.0072081 L18.1749474,36.0072081 C17.0785263,36.0072081 16.1898947,36.892203 16.1898947,37.9849137 C16.1898947,39.0776244 17.0785263,39.9632487 18.1749474,39.9632487 L51.9296842,39.9632487 L51.9296842,46.7826193 C51.9296842,47.8753299 52.8183158,48.7609543 53.9147368,48.7609543 C55.0111579,48.7609543 55.8997895,47.8753299 55.8997895,46.7826193 L55.8997895,39.9632487 L89.6242105,39.9632487 C90.72,39.9632487 91.6092632,39.0776244 91.6092632,37.9849137 C91.6092632,36.892203 90.72,36.0072081 89.6242105,36.0072081 L55.8997895,36.0072081 L55.8997895,22.0908832 L62.8168421,22.0908832 C63.9132632,22.0908832 64.8018947,21.2052589 64.8018947,20.1131777 C64.8018947,19.0198376 63.9132632,18.1348426 62.8168421,18.1348426 L55.8997895,18.1348426 L55.8997895,2.30249746 C55.8997895,1.20915736 55.0111579,0.323532995 53.9147368,0.323532995 C52.8183158,0.323532995 51.9296842,1.20915736 51.9296842,2.30249746 L51.9296842,18.1348426 L38.0336842,18.1348426 L38.0336842,2.30249746 C38.0336842,1.50184772 37.5498947,0.780507614 36.8084211,0.474598985 C36.0707368,0.17057868 35.2149474,0.336121827 34.6458947,0.902619289 L16.7488421,18.7126701 C16.1810526,19.2785381 16.0105263,20.1289137 16.3174737,20.8691371 C16.6237895,21.6093604 17.3482105,22.0908832 18.1515789,22.0908832 M34.0635789,7.07303553 L34.0635789,18.1348426 L22.9484211,18.1348426 L34.0635789,7.07303553" id="Fill-17" fill="url(#linearGradient-1)" sketch:type="MSShapeGroup"></path>
                <path d="M71.7498947,31.1019695 C72.8469474,31.1019695 73.7355789,30.2163452 73.7355789,29.124264 L73.7355789,22.0908832 L89.6014737,22.0908832 C90.6972632,22.0908832 91.5858947,21.2052589 91.5858947,20.1125482 C91.5858947,19.0198376 90.6972632,18.1342132 89.6014737,18.1342132 L73.7355789,18.1342132 L73.7355789,2.30249746 C73.7355789,1.20915736 72.8469474,0.323532995 71.7498947,0.323532995 C70.6541053,0.323532995 69.7648421,1.20915736 69.7648421,2.30249746 L69.7648421,29.124264 C69.7648421,30.2163452 70.6541053,31.1019695 71.7498947,31.1019695" id="Fill-18" fill="url(#linearGradient-1)" sketch:type="MSShapeGroup"></path>
                <path d="M89.6242105,53.8153706 L73.7122105,53.8153706 L73.7122105,46.7826193 C73.7122105,45.6899086 72.8235789,44.8042843 71.7271579,44.8042843 C70.6307368,44.8042843 69.7421053,45.6899086 69.7421053,46.7826193 L69.7421053,53.8153706 L44.9589474,53.8153706 C43.8625263,53.8153706 42.9738947,54.7009949 42.9738947,55.7937056 C42.9738947,56.8864162 43.8625263,57.7720406 44.9589474,57.7720406 L51.876,57.7720406 L51.876,73.6043858 C51.876,74.6970964 52.7646316,75.5827208 53.8610526,75.5827208 C54.9574737,75.5827208 55.8461053,74.6970964 55.8461053,73.6043858 L55.8461053,57.7720406 L69.7421053,57.7720406 L69.7421053,73.6043858 C69.7421053,74.4037766 70.2258947,75.1257462 70.9673684,75.4322843 C71.2124211,75.5336244 71.4701053,75.5827208 71.7271579,75.5827208 C72.2425263,75.5827208 72.7496842,75.3819289 73.1298947,75.004264 L91.0269474,57.1935838 C91.5947368,56.6283452 91.7652632,55.7773401 91.4583158,55.0377462 C91.152,54.2975228 90.4275789,53.8153706 89.6242105,53.8153706 M73.7122105,68.8325888 L73.7122105,57.7720406 L84.8273684,57.7720406 L73.7122105,68.8325888" id="Fill-19" fill="url(#linearGradient-1)" sketch:type="MSShapeGroup"></path>
                <path d="M36.0258947,44.8042843 C34.9288421,44.8042843 34.0402105,45.6899086 34.0402105,46.7826193 L34.0402105,53.8153706 L18.1743158,53.8153706 C17.0785263,53.8153706 16.1898947,54.7009949 16.1898947,55.7937056 C16.1898947,56.8864162 17.0785263,57.7720406 18.1743158,57.7720406 L34.0402105,57.7720406 L34.0402105,73.6043858 C34.0402105,74.6970964 34.9288421,75.5827208 36.0258947,75.5827208 C37.1216842,75.5827208 38.0109474,74.6970964 38.0109474,73.6043858 L38.0109474,46.7826193 C38.0109474,45.6899086 37.1216842,44.8042843 36.0258947,44.8042843" id="Fill-20" fill="url(#linearGradient-1)" sketch:type="MSShapeGroup"></path>
            </g>
        </g>
    </g>
</svg>