<?xml version="1.0" encoding="UTF-8" standalone="no"?>
<svg width="49px" height="47px" viewBox="0 0 49 47" version="1.1" xmlns="http://www.w3.org/2000/svg" xmlns:xlink="http://www.w3.org/1999/xlink">
    <!-- Generator: Sketch 3.6.1 (26313) - http://www.bohemiancoding.com/sketch -->
    <title>cart copy</title>
    <desc>Created with Sketch.</desc>
    <defs></defs>
    <g id="标注" stroke="none" stroke-width="1" fill="none" fill-rule="evenodd" stroke-linecap="round">
        <g id="cart-copy" stroke="#3E3A39">
            <path d="M9.74425246,7.85664364 L48.4933233,7.85664364 L48.4933233,26.1215756 L9.74425246,30.8621996 L9.74425246,7.85664364 Z M17.5305345,44.5850586 C17.5305345,45.4618456 16.8217946,46.1717092 15.9473753,46.1717092 C15.0711152,46.1717092 14.3605344,45.4618456 14.3605344,44.5850586 C14.3605344,43.7082715 15.0711152,42.9984079 15.9473753,42.9984079 C16.8217946,42.9984079 17.5305345,43.7082715 17.5305345,44.5850586 Z M45.0204936,44.5850586 C45.0204936,45.4618456 44.3099129,46.1717092 43.4336527,46.1717092 C42.5592334,46.1717092 41.8504935,45.4618456 41.8504935,44.5850586 C41.8504935,43.7082715 42.5592334,42.9984079 43.4336527,42.9984079 C44.3099129,42.9984079 45.0204936,43.7082715 45.0204936,44.5850586 Z" id="Imported-Layers"></path>
            <path d="M0.511688522,0.828290794 L3.04910484,0.828290794 C4.52169879,0.828290794 5.93274231,1.52936899 6.97448328,2.77690162 L7.47765801,3.37958288 C8.51939898,4.62711551 9.10412802,6.31919146 9.10412802,8.08330802 L9.10412802,32.0043069 C9.10412802,33.7684235 9.68885707,35.4604995 10.7290593,36.7080321 C11.7708002,37.9555647 13.1849213,38.6566429 14.6559765,38.6566429 L47.8639702,38.6566429" id="Imported-Layers"></path>
            <path d="M29,13 L29,23.7386803" id="Line-2"></path>
            <path d="M24,17.94 L34.4043422,17.94" id="Path"></path>
        </g>
    </g>
</svg>