<?xml version="1.0" encoding="UTF-8" standalone="no"?>
<svg width="31px" height="17px" viewBox="0 0 31 17" version="1.1" xmlns="http://www.w3.org/2000/svg" xmlns:xlink="http://www.w3.org/1999/xlink">
    <!-- Generator: Sketch 3.6.1 (26313) - http://www.bohemiancoding.com/sketch -->
    <title>代金券</title>
    <desc>Created with Sketch.</desc>
    <defs>
        <linearGradient x1="0%" y1="0%" x2="100%" y2="100%" id="linearGradient-1">
            <stop stop-color="#F4C9CF" offset="0%"></stop>
            <stop stop-color="#D7B87C" offset="100%"></stop>
        </linearGradient>
        <path id="path-2" d="M4.27092982,5.03583871 C4.13224561,5.03583871 3.99301754,4.98264516 3.88696491,4.87516129 L0.493824561,1.45432258 C0.281719298,1.24045161 0.281719298,0.892774194 0.493824561,0.678903226 C0.706473684,0.464483871 1.05073684,0.464483871 1.26284211,0.678903226 L4.65598246,4.09974194 C4.86808772,4.31416129 4.86808772,4.66129032 4.65598246,4.87516129 C4.54938596,4.98264516 4.41015789,5.03583871 4.27092982,5.03583871"></path>
        <path d="M28.6396491,16.6512258 L0.622175439,16.6512258 C0.321421053,16.6512258 0.0783157895,16.4060968 0.0783157895,16.1028387 L0.0783157895,0.692612903 C0.0783157895,0.389903226 0.321421053,0.144225806 0.622175439,0.144225806 L28.6396491,0.144225806 C28.7837719,0.144225806 28.9224561,0.202354839 29.0241579,0.304903226 L30.5366316,1.82996774 C30.7487368,2.04383871 30.7487368,2.39096774 30.5366316,2.60483871 L29.4086667,3.74219355 L30.5366316,4.879 C30.7487368,5.09287097 30.7487368,5.44054839 30.5366316,5.65496774 L29.4086667,6.79177419 L30.5366316,7.92858065 C30.7487368,8.143 30.7487368,8.49012903 30.5366316,8.704 L29.4086667,9.84135484 L30.5366316,10.9781613 C30.6383333,11.0812581 30.6959825,11.2205484 30.6959825,11.365871 L30.6959825,11.5287419 C30.6959825,11.6740645 30.6383333,11.8133548 30.5366316,11.9164516 L29.4086667,13.0532581 L30.5366316,14.1906129 C30.7487368,14.4044839 30.7487368,14.7516129 30.5366316,14.9660323 L29.0241579,16.4905484 C28.9224561,16.5930968 28.7837719,16.6512258 28.6396491,16.6512258 L28.6396491,16.6512258 Z M1.16603509,15.5544516 L28.4144912,15.5544516 L29.3825614,14.5777742 L28.2551404,13.4409677 C28.0424912,13.2270968 28.0424912,12.8799677 28.2551404,12.6655484 L29.4635965,11.4475806 L28.2551404,10.2290645 C28.0424912,10.0151935 28.0424912,9.66751613 28.2551404,9.45364516 L29.3825614,8.31683871 L28.2551404,7.17948387 C28.0424912,6.96506452 28.0424912,6.61793548 28.2551404,6.40406452 L29.3825614,5.26670968 L28.2551404,4.12990323 C28.0424912,3.91603226 28.0424912,3.56835484 28.2551404,3.35448387 L29.3825614,2.21767742 L28.4144912,1.241 L1.16603509,1.241 L1.16603509,15.5544516 L1.16603509,15.5544516 Z" id="path-4"></path>
        <path id="path-6" d="M1.00777193,11.2627742 C0.707561404,11.2627742 0.46445614,11.0170968 0.46445614,10.7143871 L0.46445614,4.48745161 C0.46445614,4.34212903 0.521561404,4.20229032 0.623807018,4.09974194 L4.02184211,0.673419355 C4.23394737,0.459 4.57821053,0.459 4.79085965,0.673419355 C5.00296491,0.887290323 5.00296491,1.23441935 4.79085965,1.44883871 L1.55217544,4.71448387 L1.55217544,10.7143871 C1.55217544,11.0170968 1.30852632,11.2627742 1.00777193,11.2627742"></path>
        <path id="path-8" d="M7.66950877,1.2536129 L0.878333333,1.2536129 C0.578122807,1.2536129 0.334473684,1.00793548 0.334473684,0.705225806 C0.334473684,0.401967742 0.578122807,0.15683871 0.878333333,0.15683871 L7.66950877,0.15683871 C7.9697193,0.15683871 8.21282456,0.401967742 8.21282456,0.705225806 C8.21282456,1.00793548 7.9697193,1.2536129 7.66950877,1.2536129"></path>
        <path id="path-10" d="M7.66950877,1.1686129 L0.878333333,1.1686129 C0.578122807,1.1686129 0.334473684,0.922935484 0.334473684,0.620225806 C0.334473684,0.317516129 0.578122807,0.0718387097 0.878333333,0.0718387097 L7.66950877,0.0718387097 C7.9697193,0.0718387097 8.21282456,0.317516129 8.21282456,0.620225806 C8.21282456,0.922935484 7.9697193,1.1686129 7.66950877,1.1686129"></path>
    </defs>
    <g id="标注" stroke="none" stroke-width="1" fill="none" fill-rule="evenodd">
        <g id="我的-我的订单" transform="translate(-298.000000, -94.000000)">
            <g id="代金券" transform="translate(298.000000, 94.000000)">
                <g id="Group-3" transform="translate(9.789474, 2.741935)">
                    <mask id="mask-3" fill="white">
                        <use xlink:href="#path-2"></use>
                    </mask>
                    <use id="Clip-2" fill="url(#linearGradient-1)" xlink:href="#path-2"></use>
                </g>
                <g id="Group-6">
                    <mask id="mask-5" fill="white">
                        <use xlink:href="#path-4"></use>
                    </mask>
                    <use id="Clip-5" fill="url(#linearGradient-1)" xlink:href="#path-4"></use>
                </g>
                <g id="Group-9" transform="translate(13.052632, 2.741935)">
                    <mask id="mask-7" fill="white">
                        <use xlink:href="#path-6"></use>
                    </mask>
                    <use id="Clip-8" fill="url(#linearGradient-1)" xlink:href="#path-6"></use>
                </g>
                <g id="Group-12" transform="translate(9.789474, 7.677419)">
                    <mask id="mask-9" fill="white">
                        <use xlink:href="#path-8"></use>
                    </mask>
                    <use id="Clip-11" fill="url(#linearGradient-1)" xlink:href="#path-8"></use>
                </g>
                <g id="Group-15" transform="translate(9.789474, 9.870968)">
                    <mask id="mask-11" fill="white">
                        <use xlink:href="#path-10"></use>
                    </mask>
                    <use id="Clip-14" fill="url(#linearGradient-1)" xlink:href="#path-10"></use>
                </g>
            </g>
        </g>
    </g>
</svg>