<?xml version="1.0" encoding="UTF-8" standalone="no"?>
<svg width="15px" height="29px" viewBox="0 0 15 29" version="1.1" xmlns="http://www.w3.org/2000/svg" xmlns:xlink="http://www.w3.org/1999/xlink">
    <!-- Generator: Sketch 3.6.1 (26313) - http://www.bohemiancoding.com/sketch -->
    <title>Rectangle 631</title>
    <desc>Created with Sketch.</desc>
    <defs></defs>
    <g id="标注" stroke="none" stroke-width="1" fill="none" fill-rule="evenodd">
        <g id="个人信息" transform="translate(-26.000000, -187.000000)" fill="#D7B87C">
            <path d="M26,188.792195 C26,187.802393 26.8064651,187 27.8093505,187 L39.1906495,187 C40.1899262,187 41,187.805893 41,188.792195 L41,214.207805 C41,215.197607 40.1935349,216 39.1906495,216 L27.8093505,216 C26.8100738,216 26,215.194107 26,214.207805 L26,188.792195 Z M27.25,189.636364 L39.75,189.636364 L39.75,210.727273 L27.25,210.727273 L27.25,189.636364 Z M33.5,214.681818 C34.1903559,214.681818 34.75,214.091648 34.75,213.363636 C34.75,212.635625 34.1903559,212.045455 33.5,212.045455 C32.8096441,212.045455 32.25,212.635625 32.25,213.363636 C32.25,214.091648 32.8096441,214.681818 33.5,214.681818 Z" id="Rectangle-631"></path>
        </g>
    </g>
</svg>