<?xml version="1.0" encoding="UTF-8" standalone="no"?>
<svg width="44px" height="141px" viewBox="0 0 44 141" version="1.1" xmlns="http://www.w3.org/2000/svg" xmlns:xlink="http://www.w3.org/1999/xlink">
    <!-- Generator: Sketch 3.6.1 (26313) - http://www.bohemiancoding.com/sketch -->
    <title>挂牌</title>
    <desc>Created with Sketch.</desc>
    <defs>
        <filter x="-50%" y="-50%" width="200%" height="200%" filterUnits="objectBoundingBox" id="filter-1">
            <feOffset dx="1" dy="1" in="SourceAlpha" result="shadowOffsetOuter1"></feOffset>
            <feGaussianBlur stdDeviation="1.5" in="shadowOffsetOuter1" result="shadowBlurOuter1"></feGaussianBlur>
            <feColorMatrix values="0 0 0 0 0.4   0 0 0 0 0.4   0 0 0 0 0.4  0 0 0 0.35 0" in="shadowBlurOuter1" type="matrix" result="shadowMatrixOuter1"></feColorMatrix>
            <feMerge>
                <feMergeNode in="shadowMatrixOuter1"></feMergeNode>
                <feMergeNode in="SourceGraphic"></feMergeNode>
            </feMerge>
        </filter>
        <linearGradient x1="0%" y1="0%" x2="100%" y2="100%" id="linearGradient-2">
            <stop stop-color="#F4C9CF" offset="0%"></stop>
            <stop stop-color="#D7B87C" offset="100%"></stop>
        </linearGradient>
        <path d="M1.8912,4.63514483 L4.69241379,1.83790345 L4.69241379,4.63514483 L1.8912,4.63514483 M9.6950069,0.13142069 C9.4185931,0.13142069 9.19481379,0.3552 9.19481379,0.631613793 L9.19481379,4.63514483 L5.6928,4.63514483 L5.6928,0.631613793 C5.6928,0.429351724 5.57097931,0.246951724 5.38427586,0.169489655 C5.32237241,0.144 5.25748966,0.13142069 5.19326897,0.13142069 C5.06317241,0.13142069 4.93506207,0.182068966 4.83906207,0.277737931 L0.329048276,4.78113103 C0.186041379,4.92413793 0.143006897,5.13931034 0.220468966,5.32634483 C0.297268966,5.51337931 0.48,5.63553103 0.682262069,5.63553103 L4.69241379,5.63553103 L4.69241379,7.41384828 C4.69241379,7.68993103 4.91652414,7.91404138 5.1926069,7.91404138 C5.46902069,7.91404138 5.6928,7.68993103 5.6928,7.41384828 L5.6928,5.63553103 L9.19481379,5.63553103 L9.19481379,9.15409655 L0.68822069,9.15409655 C0.412137931,9.15409655 0.188027586,9.3782069 0.188027586,9.65462069 C0.188027586,9.93037241 0.412137931,10.1544828 0.68822069,10.1544828 L9.19481379,10.1544828 L9.19481379,11.8788414 C9.19481379,12.1552552 9.4185931,12.3790345 9.6950069,12.3790345 C9.97108966,12.3790345 10.195531,12.1552552 10.195531,11.8788414 L10.195531,10.1544828 L18.6938483,10.1544828 C18.9702621,10.1544828 19.1943724,9.93037241 19.1943724,9.65462069 C19.1943724,9.3782069 18.9702621,9.15409655 18.6938483,9.15409655 L10.195531,9.15409655 L10.195531,5.63553103 L11.9380966,5.63553103 C12.2145103,5.63553103 12.4386207,5.41142069 12.4386207,5.1350069 C12.4386207,4.85892414 12.2145103,4.63514483 11.9380966,4.63514483 L10.195531,4.63514483 L10.195531,0.631613793 C10.195531,0.3552 9.97108966,0.13142069 9.6950069,0.13142069" id="path-3"></path>
        <path id="path-5" d="M0.617048276,0.13142069 C0.340965517,0.13142069 0.116524138,0.3552 0.116524138,0.631613793 L0.116524138,7.41384828 C0.116524138,7.68993103 0.340965517,7.91404138 0.617048276,7.91404138 C0.893131034,7.91404138 1.11757241,7.68993103 1.11757241,7.41384828 L1.11757241,5.63553103 L5.11547586,5.63553103 C5.39188966,5.63553103 5.616,5.41142069 5.616,5.13533793 C5.616,4.85892414 5.39188966,4.63481379 5.11547586,4.63481379 L1.11757241,4.63481379 L1.11757241,0.631613793 C1.11757241,0.3552 0.893131034,0.13142069 0.617048276,0.13142069"></path>
        <path d="M8.06333793,6.19928276 L8.06333793,3.40270345 L10.8642207,3.40270345 L8.06333793,6.19928276 M7.56314483,0.123144828 C7.28673103,0.123144828 7.06295172,0.347255172 7.06295172,0.623668966 L7.06295172,2.40198621 L0.817324138,2.40198621 C0.540910345,2.40198621 0.317131034,2.62609655 0.317131034,2.90251034 C0.317131034,3.1785931 0.540910345,3.40270345 0.817324138,3.40270345 L2.56055172,3.40270345 L2.56055172,7.40590345 C2.56055172,7.68198621 2.78433103,7.90609655 3.06074483,7.90609655 C3.33682759,7.90609655 3.56093793,7.68198621 3.56093793,7.40590345 L3.56093793,3.40270345 L7.06295172,3.40270345 L7.06295172,7.40590345 C7.06295172,7.60816552 7.18444138,7.79056552 7.37147586,7.86802759 C7.43337931,7.89351724 7.49826207,7.90609655 7.56314483,7.90609655 C7.69291034,7.90609655 7.82068966,7.85544828 7.91668966,7.75977931 L12.4267034,3.25605517 C12.5697103,3.11337931 12.6127448,2.8982069 12.5352828,2.71117241 C12.4584828,2.52413793 12.2754207,2.40198621 12.0731586,2.40198621 L8.06333793,2.40198621 L8.06333793,0.623668966 C8.06333793,0.347255172 7.83955862,0.123144828 7.56314483,0.123144828" id="path-7"></path>
        <path id="path-9" d="M5.18664828,0.123475862 C4.91056552,0.123475862 4.68645517,0.347586207 4.68645517,0.623668966 L4.68645517,2.40198621 L0.68822069,2.40198621 C0.412137931,2.40198621 0.188027586,2.62609655 0.188027586,2.90217931 C0.188027586,3.1785931 0.412137931,3.40237241 0.68822069,3.40237241 L4.68645517,3.40237241 L4.68645517,7.40590345 C4.68645517,7.68198621 4.91056552,7.90609655 5.18664828,7.90609655 C5.46306207,7.90609655 5.68717241,7.68198621 5.68717241,7.40590345 L5.68717241,0.623668966 C5.68717241,0.347586207 5.46306207,0.123475862 5.18664828,0.123475862"></path>
    </defs>
    <g id="标注" stroke="none" stroke-width="1" fill="none" fill-rule="evenodd">
        <g id="单品" transform="translate(-305.000000, -79.000000)">
            <g id="挂牌" transform="translate(307.000000, 81.000000)">
                <path d="M0,7.99065021 C0,3.57753596 3.57494774,0 8.00079513,0 L29.9992049,0 C34.417922,0 38,3.57614966 38,7.99065021 L38,127.00935 C38,131.422464 34.4250523,135 29.9992049,135 L8.00079513,135 C3.582078,135 0,131.42385 0,127.00935 L0,7.99065021 Z M19,26 C23.9705627,26 28,21.9705627 28,17 C28,12.0294373 23.9705627,8 19,8 C14.0294373,8 10,12.0294373 10,17 C10,21.9705627 14.0294373,26 19,26 Z" id="Rectangle-285" fill="#3E3A39" filter="url(#filter-1)"></path>
                <g id="logo-2" transform="translate(9.000000, 105.000000)">
                    <g id="Group-5">
                        <mask id="mask-4" fill="white">
                            <use xlink:href="#path-3"></use>
                        </mask>
                        <use id="Clip-4" fill="url(#linearGradient-2)" xlink:href="#path-3"></use>
                    </g>
                    <g id="Group-8" transform="translate(13.572414, 0.000000)">
                        <mask id="mask-6" fill="white">
                            <use xlink:href="#path-5"></use>
                        </mask>
                        <use id="Clip-7" fill="url(#linearGradient-2)" xlink:href="#path-5"></use>
                    </g>
                    <g id="Group-11" transform="translate(6.620690, 11.255172)">
                        <mask id="mask-8" fill="white">
                            <use xlink:href="#path-7"></use>
                        </mask>
                        <use id="Clip-10" fill="url(#linearGradient-2)" xlink:href="#path-7"></use>
                    </g>
                    <g id="Group-14" transform="translate(0.000000, 11.255172)">
                        <mask id="mask-10" fill="white">
                            <use xlink:href="#path-9"></use>
                        </mask>
                        <use id="Clip-13" fill="url(#linearGradient-2)" xlink:href="#path-9"></use>
                    </g>
                </g>
                <text id="去" font-family="STHeitiSC-Light, Heiti SC" font-size="15" font-weight="300" line-spacing="18" fill="#E9E9E9">
                    <tspan x="12" y="50">去</tspan>
                    <tspan x="12" y="68">搭</tspan>
                    <tspan x="12" y="86">配</tspan>
                </text>
            </g>
        </g>
    </g>
</svg>