<?xml version="1.0" encoding="UTF-8" standalone="no"?>
<svg width="36px" height="29px" viewBox="0 0 36 29" version="1.1" xmlns="http://www.w3.org/2000/svg" xmlns:xlink="http://www.w3.org/1999/xlink" xmlns:sketch="http://www.bohemiancoding.com/sketch/ns">
    <!-- Generator: Sketch 3.5.1 (25234) - http://www.bohemiancoding.com/sketch -->
    <title>Imported Layers</title>
    <desc>Created with Sketch.</desc>
    <defs>
        <path d="M82.3913231,639.696245 C82.3913231,635.077858 77.9248308,631.333849 72.4151692,631.333849 C66.9055077,631.333849 62.4390154,635.077858 62.4390154,639.696245 C62.4390154,644.314632 66.9055077,648.058368 72.4151692,648.058368 C73.6125846,648.058368 74.7604308,647.881085 75.8240923,647.556887 L79.2512923,649.272264 L78.2984,646.448047 C80.7790769,644.926915 82.3913231,642.469849 82.3913231,639.696245 L82.3913231,639.696245 Z M69.0079077,638.262113 C68.3945231,638.262113 67.8971692,637.828755 67.8971692,637.29417 C67.8971692,636.759585 68.3945231,636.326226 69.0079077,636.326226 C69.6212923,636.326226 70.1186462,636.759585 70.1186462,637.29417 C70.1186462,637.828755 69.6212923,638.262113 69.0079077,638.262113 L69.0079077,638.262113 Z M75.8013846,638.262113 C75.188,638.262113 74.6906462,637.828755 74.6906462,637.29417 C74.6906462,636.759585 75.188,636.326226 75.8013846,636.326226 C76.4150462,636.326226 76.9124,636.759585 76.9124,637.29417 C76.9124,637.828755 76.4150462,638.262113 75.8013846,638.262113 L75.8013846,638.262113 Z M59.9647077,621 C52.8043077,621 47,625.836708 47,631.803047 C47,635.330377 49.0295692,638.462377 52.1682154,640.43383 L50.8810769,644.066491 L55.4104308,641.918575 C56.8274462,642.361783 58.3616,642.605821 59.9647077,642.605821 C60.4376923,642.605821 60.9043077,642.583387 61.3642769,642.542349 C61.0098154,641.610245 60.8170769,640.617953 60.8170769,639.587358 C60.8170769,634.218255 66.0096615,629.865519 72.4151692,629.865519 C72.5170769,629.865519 72.6176,629.869896 72.7186769,629.872085 C71.6256615,624.827726 66.3333846,621 59.9647077,621 L59.9647077,621 Z M55.5223077,629.57716 C54.6846154,629.57716 54.0056,628.979651 54.0056,628.24234 C54.0056,627.505028 54.6846154,626.907519 55.5223077,626.907519 C56.36,626.907519 57.0390154,627.505028 57.0390154,628.24234 C57.0390154,628.979651 56.36,629.57716 55.5223077,629.57716 L55.5223077,629.57716 Z M64.4876923,629.564575 C63.6580308,629.564575 62.9853846,628.972538 62.9853846,628.24234 C62.9853846,627.512142 63.6580308,626.920104 64.4876923,626.920104 C65.3173538,626.920104 65.99,627.512142 65.99,628.24234 C65.99,628.972538 65.3173538,629.564575 64.4876923,629.564575 L64.4876923,629.564575 Z" id="path-1"></path>
    </defs>
    <g id="all" stroke="none" stroke-width="1" fill="none" fill-rule="evenodd" sketch:type="MSPage">
        <g id="登录" sketch:type="MSArtboardGroup" transform="translate(-47.000000, -621.000000)">
            <g id="Imported-Layers">
                <use fill="none" sketch:type="MSShapeGroup" xlink:href="#path-1"></use>
                <use fill="#3E3A39" fill-rule="evenodd" xlink:href="#path-1"></use>
            </g>
        </g>
    </g>
</svg>