<?xml version="1.0" encoding="UTF-8" standalone="no"?>
<svg width="103px" height="18px" viewBox="0 0 103 18" version="1.1" xmlns="http://www.w3.org/2000/svg" xmlns:xlink="http://www.w3.org/1999/xlink" xmlns:sketch="http://www.bohemiancoding.com/sketch/ns">
    <!-- Generator: Sketch 3.4.4 (17249) - http://www.bohemiancoding.com/sketch -->
    <title>D4ME</title>
    <desc>Created with Sketch.</desc>
    <defs></defs>
    <g id="首页" stroke="none" stroke-width="1" fill="none" fill-rule="evenodd" sketch:type="MSPage">
        <g id="home" sketch:type="MSArtboardGroup" transform="translate(-136.000000, -31.000000)" fill="#3E3A39">
            <g id="Navigation-Bar-" sketch:type="MSLayerGroup">
                <path d="M177.056407,43.0373548 C176.891862,42.8649032 176.693408,42.7795484 176.4616,42.7795484 L174.778351,42.7795484 L174.778351,32.2257419 C174.778351,31.9836129 174.695522,31.7763226 174.530422,31.6044516 C174.365877,31.432 174.167422,31.3460645 173.93617,31.3460645 C173.633764,31.3460645 173.405847,31.4668387 173.251308,31.7089677 L165.673908,43.1424516 C165.5694,43.2951613 165.516034,43.4681935 165.516034,43.6586452 C165.516034,43.9001935 165.598862,44.1080645 165.762851,44.2793548 C165.928508,44.4518065 166.126962,44.5383226 166.357658,44.5383226 L172.296837,44.5383226 L172.296837,42.7795484 L167.968641,42.7795484 L173.09399,35.0395484 L173.09399,48.0552903 C173.09399,48.298 173.176262,48.5052903 173.340807,48.6771613 C173.505352,48.8490323 173.703806,48.9349677 173.93617,48.9349677 C174.167422,48.9349677 174.365877,48.8490323 174.530422,48.6771613 C174.695522,48.5052903 174.778351,48.298 174.778351,48.0552903 L174.778351,44.5383226 L176.4616,44.5383226 C176.693408,44.5383226 176.891862,44.4518065 177.056407,44.2793548 C177.220952,44.1080645 177.303224,43.9001935 177.303224,43.6586452 C177.303224,43.4165161 177.220952,43.2092258 177.056407,43.0373548 Z M210.021516,31.603871 C209.856416,31.4325806 209.657961,31.3466452 209.426153,31.3466452 C209.089837,31.3466452 208.84024,31.4999355 208.679587,31.8076774 L202.291245,45.1630968 L203.236266,47.1268387 L208.583973,35.9517419 L208.583973,48.055871 C208.583973,48.298 208.666801,48.5047097 208.831346,48.6771613 C208.996447,48.8496129 209.194901,48.9355484 209.426153,48.9355484 C209.657961,48.9355484 209.856416,48.8496129 210.021516,48.6771613 C210.185505,48.5047097 210.268334,48.298 210.268334,48.055871 L210.268334,32.2257419 C210.268334,31.9836129 210.185505,31.7763226 210.021516,31.603871 Z M235.408114,40.7618065 C235.572659,40.5899355 235.654931,40.3826452 235.654931,40.1405161 C235.654931,39.8983871 235.572659,39.6910968 235.408114,39.5192258 C235.244125,39.3473548 235.045115,39.2608387 234.812751,39.2608387 L228.867457,39.2608387 L228.867457,41.0196129 L234.812751,41.0196129 C235.045115,41.0196129 235.244125,40.9342581 235.408114,40.7618065 Z M237.339292,47.1761935 L228.078087,47.1761935 L228.078087,43.7242581 L228.069748,43.7242581 L228.069748,37.5746452 L228.078087,37.5746452 L228.078087,33.1048387 L237.339292,33.1048387 C237.570544,33.1048387 237.768999,33.0189032 237.934655,32.8470323 C238.0992,32.6745806 238.180916,32.4672903 238.180916,32.2257419 C238.180916,31.9841935 238.0992,31.7763226 237.934655,31.603871 C237.768999,31.432 237.570544,31.3460645 237.339292,31.3460645 L227.235906,31.3460645 C227.004098,31.3460645 226.805644,31.432 226.641099,31.603871 C226.476554,31.7763226 226.394282,31.9841935 226.394282,32.2257419 L226.394282,48.055871 C226.394282,48.2974194 226.476554,48.5047097 226.641099,48.6777419 C226.805644,48.8490323 227.004098,48.9355484 227.235906,48.9355484 L237.339292,48.9355484 C237.570544,48.9355484 237.768999,48.8490323 237.934655,48.6777419 C238.0992,48.5047097 238.180916,48.2974194 238.180916,48.055871 C238.180916,47.8143226 238.0992,47.6064516 237.934655,47.434 C237.768999,47.262129 237.570544,47.1761935 237.339292,47.1761935 Z M146.922469,33.924129 C145.277021,32.206 143.294145,31.3460645 140.971617,31.3460645 L139.25279,31.3460645 L139.25279,33.1048387 L140.971617,33.1048387 C142.831084,33.1048387 144.417608,33.7923226 145.73341,35.166129 C147.049213,36.5405161 147.706836,38.1982581 147.706836,40.1405161 C147.706836,42.0827742 147.049213,43.7405161 145.73341,45.1154839 C144.417608,46.4887097 142.831084,47.1761935 140.971617,47.1761935 L138.445075,47.1761935 L138.445075,33.1048387 L138.455637,33.1048387 L138.455637,31.3460645 L137.603451,31.3460645 C137.372199,31.3460645 137.173188,31.432 137.008088,31.603871 C136.843543,31.7763226 136.76127,31.9836129 136.76127,32.2257419 L136.76127,48.055871 C136.76127,48.2974194 136.843543,48.5047097 137.008088,48.6771613 C137.173188,48.8490323 137.372199,48.9355484 137.603451,48.9355484 L140.971617,48.9355484 C143.294145,48.9355484 145.277021,48.0756129 146.922469,46.3574839 C148.567917,44.6381935 149.390641,42.5664516 149.390641,40.1405161 C149.390641,37.714 148.567917,35.6428387 146.922469,33.924129 Z M200.510159,43.3166452 L200.520721,43.312 L195.017919,31.8076774 C194.85671,31.4999355 194.608225,31.3460645 194.270797,31.3460645 C194.039545,31.3460645 193.84109,31.432 193.67599,31.6044516 C193.511445,31.7763226 193.429172,31.9836129 193.429172,32.2251613 L193.429172,48.0552903 C193.429172,48.298 193.511445,48.5052903 193.67599,48.6771613 C193.84109,48.8490323 194.039545,48.9343871 194.270797,48.9343871 C194.502605,48.9343871 194.701059,48.8490323 194.86616,48.6771613 C195.030705,48.5052903 195.112977,48.298 195.112977,48.0552903 L195.112977,35.9517419 L201.070501,48.396129 C201.238381,48.7555484 201.498539,48.9343871 201.848753,48.9343871 C202.185069,48.9343871 202.427439,48.7915484 202.575307,48.5070323 L202.79155,48.055871 L200.510159,43.3166452 Z" id="D4ME" sketch:type="MSShapeGroup"></path>
            </g>
        </g>
    </g>
</svg>